<?xml version="1.0" standalone="no"?>
<svg xmlns:xlink="http://www.w3.org/1999/xlink" id="wave" style="transform:rotate(180deg); transition: 0.3s" viewBox="0 0 1440 490" version="1.1" xmlns="http://www.w3.org/2000/svg"><defs><linearGradient id="sw-gradient-0" x1="0" x2="0" y1="1" y2="0"><stop stop-color="rgba(24, 21, 51, 1)" offset="0%"/><stop stop-color="rgba(24, 21, 51, 1)" offset="100%"/></linearGradient></defs><path style="transform:translate(0, 0px); opacity:1" fill="url(#sw-gradient-0)" d="M0,98L17.1,130.7C34.3,163,69,229,103,261.3C137.1,294,171,294,206,310.3C240,327,274,359,309,334.8C342.9,310,377,229,411,187.8C445.7,147,480,147,514,171.5C548.6,196,583,245,617,228.7C651.4,212,686,131,720,114.3C754.3,98,789,147,823,179.7C857.1,212,891,229,926,204.2C960,180,994,114,1029,114.3C1062.9,114,1097,180,1131,179.7C1165.7,180,1200,114,1234,98C1268.6,82,1303,114,1337,138.8C1371.4,163,1406,180,1440,179.7C1474.3,180,1509,163,1543,138.8C1577.1,114,1611,82,1646,122.5C1680,163,1714,278,1749,277.7C1782.9,278,1817,163,1851,122.5C1885.7,82,1920,114,1954,114.3C1988.6,114,2023,82,2057,98C2091.4,114,2126,180,2160,212.3C2194.3,245,2229,245,2263,261.3C2297.1,278,2331,310,2366,326.7C2400,343,2434,343,2451,343L2468.6,343L2468.6,490L2451.4,490C2434.3,490,2400,490,2366,490C2331.4,490,2297,490,2263,490C2228.6,490,2194,490,2160,490C2125.7,490,2091,490,2057,490C2022.9,490,1989,490,1954,490C1920,490,1886,490,1851,490C1817.1,490,1783,490,1749,490C1714.3,490,1680,490,1646,490C1611.4,490,1577,490,1543,490C1508.6,490,1474,490,1440,490C1405.7,490,1371,490,1337,490C1302.9,490,1269,490,1234,490C1200,490,1166,490,1131,490C1097.1,490,1063,490,1029,490C994.3,490,960,490,926,490C891.4,490,857,490,823,490C788.6,490,754,490,720,490C685.7,490,651,490,617,490C582.9,490,549,490,514,490C480,490,446,490,411,490C377.1,490,343,490,309,490C274.3,490,240,490,206,490C171.4,490,137,490,103,490C68.6,490,34,490,17,490L0,490Z"/></svg>