<svg width="36" height="54" viewBox="0 0 36 54" fill="none" xmlns="http://www.w3.org/2000/svg">
<g id="figma-1 1" clip-path="url(#clip0_2_5141)">
<path id="path0 fill" d="M8.97407 53.6186C13.8737 53.6186 17.8502 49.6661 17.8502 44.7961V35.9735H8.97407C4.07447 35.9735 0.0979767 39.926 0.0979767 44.7961C0.0979767 49.6661 4.07447 53.6186 8.97407 53.6186Z" fill="#0ACF83"/>
<path id="path1 fill" d="M0.0979767 27.1517C0.0979767 22.2816 4.07447 18.3291 8.97407 18.3291H17.8502V35.9742H8.97407C4.07447 35.9742 0.0979767 32.0217 0.0979767 27.1517Z" fill="#A259FF"/>
<path id="path1 fill 1" d="M0.0980835 9.50615C0.0980835 4.6361 4.07458 0.683601 8.97418 0.683601H17.8503V18.3287H8.97418C4.07458 18.3287 0.0980835 14.3762 0.0980835 9.50615Z" fill="#F24E1E"/>
<path id="path2 fill" d="M17.8502 0.683601H26.7263C31.6259 0.683601 35.6024 4.6361 35.6024 9.50615C35.6024 14.3762 31.6259 18.3287 26.7263 18.3287H17.8502V0.683601Z" fill="#FF7262"/>
<path id="path3 fill" d="M35.6024 27.1517C35.6024 32.0217 31.6259 35.9742 26.7263 35.9742C21.8267 35.9742 17.8502 32.0217 17.8502 27.1517C17.8502 22.2816 21.8267 18.3291 26.7263 18.3291C31.6259 18.3291 35.6024 22.2816 35.6024 27.1517Z" fill="#1ABCFE"/>
</g>
<defs>
<clipPath id="clip0_2_5141">
<rect width="35.5115" height="52.9352" fill="white" transform="translate(0.0944366 0.683594)"/>
</clipPath>
</defs>
</svg>
