<svg width="53" height="61" viewBox="0 0 53 61" fill="none" xmlns="http://www.w3.org/2000/svg">
<g id="Logo">
<path id="Vector" d="M8.13146 48.2079H52.802V0.414856H8.00817C3.883 0.428547 0.541928 3.80144 0.528366 7.9659V51.9728H0.529599C0.529599 51.9915 0.528366 52.0101 0.528366 52.0288C0.528366 56.4347 3.95327 60.1561 8.00817 60.1561H52.802V56.1734H8.00817C6.15887 56.1734 4.47354 54.1982 4.47354 52.0288C4.47354 49.9578 6.14901 48.2079 8.13146 48.2079ZM12.3639 4.43868H24.1994V25.948L18.2323 20.6597L12.3639 25.9169V4.43868ZM4.47354 7.99702C4.46738 6.01809 6.04791 4.40881 8.00817 4.39761H8.41872H12.3639H8.41872V31.2812H12.3195L18.2471 25.9717L24.2364 31.2812H28.1446V4.39761H48.8568V44.2251H12.3738H8.42858H8.13146C6.84805 44.2251 5.58806 44.5636 4.47478 45.2059V7.99702H4.47354Z" fill="#1B3764"/>
</g>
</svg>
