<svg width="45" height="36" viewBox="0 0 45 36" fill="none" xmlns="http://www.w3.org/2000/svg">
<g id="Vector">
<path d="M0 35.0787L22.1366 0.182004L34.002 7.77365L16.6809 35.0787H0Z" fill="#FBBC04"/>
<path d="M21.6687 0H35.2949V35.0787H21.6687V0Z" fill="#1A73E8"/>
<path d="M7.54839 14.1492C11.2786 14.1492 14.3024 11.1123 14.3024 7.36617C14.3024 3.62001 11.2786 0.583136 7.54839 0.583136C3.81823 0.583136 0.79433 3.62001 0.79433 7.36617C0.79433 11.1123 3.81823 14.1492 7.54839 14.1492Z" fill="#EA4335"/>
<path d="M45 25.332C45 27.917 43.9775 30.3961 42.1575 32.224C40.3374 34.0519 37.8689 35.0787 35.2949 35.0787V15.5862C37.8687 15.5862 40.3371 16.613 42.1571 18.4407C43.9772 20.2683 44.9998 22.7472 45 25.332Z" fill="#34A853"/>
<path d="M35.2949 15.5862V35.0787C32.7373 35.054 30.2928 34.0162 28.493 32.1912C26.6931 30.3661 25.6834 27.9012 25.6834 25.3325C25.6834 22.7638 26.6931 20.2989 28.493 18.4738C30.2928 16.6487 32.7373 15.611 35.2949 15.5862Z" fill="#0D652D"/>
<path d="M42.764 8.08513C42.7637 10.0745 41.9767 11.9823 40.5761 13.3889C39.1754 14.7956 37.2758 15.586 35.2949 15.5862V0.583136C37.2759 0.583377 39.1757 1.37387 40.5764 2.78074C41.9771 4.18761 42.764 6.09564 42.764 8.08513Z" fill="#1A73E8"/>
<path d="M35.2949 0.583136V15.5862C33.3281 15.5645 31.4492 14.7646 30.066 13.3602C28.6828 11.9557 27.9071 10.0601 27.9071 8.08468C27.9071 6.1093 28.6828 4.21364 30.066 2.80919C31.4492 1.40473 33.3281 0.604838 35.2949 0.583136Z" fill="#174EA6"/>
</g>
</svg>
