<svg width="45" height="45" viewBox="0 0 45 45" fill="none" xmlns="http://www.w3.org/2000/svg">
<g id="Vector">
<path d="M2.8125 0H42.1875C42.9334 0 43.6488 0.296316 44.1762 0.823762C44.7037 1.35121 45 2.06658 45 2.8125V42.1875C45 42.9334 44.7037 43.6488 44.1762 44.1762C43.6488 44.7037 42.9334 45 42.1875 45H2.8125C2.06658 45 1.35121 44.7037 0.823762 44.1762C0.296316 43.6488 0 42.9334 0 42.1875V2.8125C0 2.06658 0.296316 1.35121 0.823762 0.823762C1.35121 0.296316 2.06658 0 2.8125 0Z" fill="#05A081"/>
<path d="M18.2812 29.5312H23.7136V24.255H25.3547C25.9316 24.255 26.5029 24.1414 27.0359 23.9206C27.5689 23.6998 28.0532 23.3762 28.4611 22.9683C28.869 22.5603 29.1926 22.076 29.4134 21.5431C29.6342 21.0101 29.7478 20.4388 29.7478 19.8619C29.7478 19.285 29.6342 18.7137 29.4134 18.1807C29.1926 17.6477 28.869 17.1634 28.4611 16.7555C28.0532 16.3475 27.5689 16.0239 27.0359 15.8032C26.5029 15.5824 25.9316 15.4688 25.3547 15.4688H18.2812V29.5312ZM26.5261 32.3438H15.4688V12.6562H25.3547C27.1643 12.6559 28.9077 13.3364 30.2385 14.5626C31.5694 15.7887 32.3901 17.4707 32.5377 19.2742C32.6853 21.0778 32.1489 22.8708 31.0351 24.297C29.9213 25.7232 28.3116 26.678 26.5261 26.9719V32.3438Z" fill="white"/>
</g>
</svg>
