<svg width="1920" height="492" viewBox="0 0 1920 492" fill="none" xmlns="http://www.w3.org/2000/svg">
<mask id="mask0_27_33" style="mask-type:alpha" maskUnits="userSpaceOnUse" x="0" y="0" width="1920" height="492">
<rect width="1920" height="492" fill="#60E1CB"/>
</mask>
<g mask="url(#mask0_27_33)">
<path opacity="0.4" d="M2258 -285C2207.33 -181.667 2065.4 19.0999 1903 -4.50012C1740.6 -28.1001 1801.33 172.667 1852 276C1899.17 403.333 1935.8 597.6 1705 356C1474.2 114.4 1215.5 324.667 1115 460L933.5 708.5" stroke="black" stroke-width="2"/>
<path d="M210.906 -1000.72C244.776 -981.34 295.54 -916.957 227.637 -814.47C159.735 -711.984 262.87 -403.641 322.925 -262.281L508.971 165.79C534.213 225.103 597.6 315.259 649.219 201.384C700.837 87.5092 443.355 74.2936 308.162 81.9202L-36.7056 96.4999" stroke="#EEEEEE"/>
<g opacity="0.15">
<circle cx="27" cy="431.5" r="200.5" fill="white"/>
</g>
</g>
</svg>
