<svg width="2537" height="1694" viewBox="0 0 2537 1694" fill="none" xmlns="http://www.w3.org/2000/svg">
<g opacity="0.1">
<path d="M343.406 30.2799C377.276 49.6606 428.04 114.043 360.137 216.53C292.235 319.016 395.37 627.359 455.425 768.719L641.471 1196.79C666.713 1256.1 730.1 1346.26 781.719 1232.38C833.337 1118.51 575.855 1105.29 440.662 1112.92L95.7944 1127.5" stroke="#212121" stroke-width="3"/>
<path d="M1799.53 26.7941C1833.4 46.1747 1884.16 110.558 1816.26 213.044C1748.36 315.53 843.638 50.4337 903.693 191.794L1104.5 1294.08C1129.74 1353.4 1193.13 1443.55 1244.75 1329.68C1296.37 1215.8 1422.72 423.667 1287.53 431.294L558.825 1224.79" stroke="#212121" stroke-width="3"/>
<path d="M2535 360C2484.31 498.644 2342.33 768.017 2179.87 736.353C2017.4 704.688 2078.16 974.062 2128.85 1112.71C2176.03 1283.55 2212.68 1544.2 1981.79 1220.04C1750.9 895.883 1492.11 1178 1391.57 1359.58L1210 1693" stroke="#212121" stroke-width="3"/>
</g>
</svg>
