<svg width="71" height="72" viewBox="0 0 71 72" fill="none" xmlns="http://www.w3.org/2000/svg">
<g id="Group">
<g id="Group_2">
<path id="Vector" d="M45.4802 56.1746C46.7966 54.9836 48.1013 53.6753 49.4059 52.5019C62.6756 39.2371 65.1674 25.8491 65.0381 18.762C64.6385 22.9626 63.1986 26.7702 61.0947 30.0497C57.6744 36.3507 50.8633 43.6958 37.5876 52.8949C39.6915 56.4385 42.0599 59.0668 44.0227 60.8914C45.3391 62.2173 46.9142 63.6488 48.6184 64.8398C68.7228 52.2379 78.6957 23.6256 61.3592 0C77.6673 24.9339 62.5522 42.0004 45.4802 56.1746Z" fill="url(#paint0_linear_168_132)"/>
<path id="Vector_2" d="M55.4591 20.0702C53.7548 19.548 52.0564 19.02 50.3345 18.6269C32.5925 13.7692 20.1103 18.3688 14.0631 21.9123C17.8713 20.2109 21.8087 19.548 25.4935 19.6888C32.5926 19.548 42.4478 21.7833 56.9105 28.4773C58.8675 23.6255 61.3593 17.4537 62.7991 13.916C42.1834 2.10029 11.6948 7.35097 0 34.3851C13.1522 8.26032 34.9609 12.5959 55.4591 20.0702Z" fill="url(#paint1_linear_168_132)"/>
<path id="Vector_3" d="M29.7013 22.5754C29.7013 24.4 29.8305 26.2481 29.9657 27.9436C31.2821 46.7232 39.6917 57.2189 45.21 61.9417C42.3069 58.7971 40.35 55.2535 39.1688 51.5692C36.6711 44.7402 35.6192 34.6435 37.4528 18.369C33.3861 18.2341 28.3908 17.9701 24.5827 17.7061C23.3897 18.105 22.2143 18.3689 21.1624 18.7561C17.2191 42.2585 32.3282 69.0287 61.759 71.3871C32.2048 67.3215 29.1783 44.746 29.7013 22.5754Z" fill="url(#paint2_linear_168_132)"/>
</g>
</g>
<defs>
<linearGradient id="paint0_linear_168_132" x1="37.5876" y1="64.0085" x2="71.765" y2="63.2088" gradientUnits="userSpaceOnUse">
<stop stop-color="#5C40B5"/>
<stop offset="1" stop-color="#F7366F"/>
</linearGradient>
<linearGradient id="paint1_linear_168_132" x1="9.3578e-07" y1="34.0464" x2="64.9241" y2="26.8821" gradientUnits="userSpaceOnUse">
<stop stop-color="#5C40B5"/>
<stop offset="1" stop-color="#F7366F"/>
</linearGradient>
<linearGradient id="paint2_linear_168_132" x1="20.5449" y1="70.6989" x2="63.6177" y2="69.1636" gradientUnits="userSpaceOnUse">
<stop stop-color="#5C40B5"/>
<stop offset="1" stop-color="#F7366F"/>
</linearGradient>
</defs>
</svg>
