<svg width="25" height="25" viewBox="0 0 25 25" fill="none" xmlns="http://www.w3.org/2000/svg">
<g id="linkedin">
<path id="Vector" d="M16.627 8.69336C18.2183 8.69336 19.7444 9.3255 20.8696 10.4507C21.9948 11.5759 22.627 13.1021 22.627 14.6934V21.6934H18.627V14.6934C18.627 14.1629 18.4162 13.6542 18.0412 13.2791C17.6661 12.9041 17.1574 12.6934 16.627 12.6934C16.0965 12.6934 15.5878 12.9041 15.2127 13.2791C14.8377 13.6542 14.627 14.1629 14.627 14.6934V21.6934H10.627V14.6934C10.627 13.1021 11.2591 11.5759 12.3843 10.4507C13.5095 9.3255 15.0357 8.69336 16.627 8.69336Z" stroke="white" stroke-width="2" stroke-linecap="round" stroke-linejoin="round"/>
<path id="Vector_2" d="M6.62695 9.69336H2.62695V21.6934H6.62695V9.69336Z" stroke="white" stroke-width="2" stroke-linecap="round" stroke-linejoin="round"/>
<path id="Vector_3" d="M4.62695 6.69336C5.73152 6.69336 6.62695 5.79793 6.62695 4.69336C6.62695 3.58879 5.73152 2.69336 4.62695 2.69336C3.52238 2.69336 2.62695 3.58879 2.62695 4.69336C2.62695 5.79793 3.52238 6.69336 4.62695 6.69336Z" stroke="white" stroke-width="2" stroke-linecap="round" stroke-linejoin="round"/>
</g>
</svg>
