<?xml version="1.0" standalone="no"?>
<svg xmlns:xlink="http://www.w3.org/1999/xlink" id="wave" style="transform:rotate(0deg); transition: 0.3s" viewBox="0 0 1440 490" version="1.1" xmlns="http://www.w3.org/2000/svg"><defs><linearGradient id="sw-gradient-0" x1="0" x2="0" y1="1" y2="0"><stop stop-color="rgba(100.32, 198.401, 118.663, 1)" offset="0%"/><stop stop-color="rgba(255, 179, 11, 1)" offset="100%"/></linearGradient></defs><path style="transform:translate(0, 0px); opacity:1" fill="url(#sw-gradient-0)" d="M0,0L26.7,16.3C53.3,33,107,65,160,65.3C213.3,65,267,33,320,57.2C373.3,82,427,163,480,171.5C533.3,180,587,114,640,130.7C693.3,147,747,245,800,285.8C853.3,327,907,310,960,285.8C1013.3,261,1067,229,1120,204.2C1173.3,180,1227,163,1280,204.2C1333.3,245,1387,343,1440,326.7C1493.3,310,1547,180,1600,130.7C1653.3,82,1707,114,1760,122.5C1813.3,131,1867,114,1920,130.7C1973.3,147,2027,196,2080,212.3C2133.3,229,2187,212,2240,245C2293.3,278,2347,359,2400,367.5C2453.3,376,2507,310,2560,310.3C2613.3,310,2667,376,2720,343C2773.3,310,2827,180,2880,106.2C2933.3,33,2987,16,3040,32.7C3093.3,49,3147,98,3200,122.5C3253.3,147,3307,147,3360,122.5C3413.3,98,3467,49,3520,49C3573.3,49,3627,98,3680,98C3733.3,98,3787,49,3813,24.5L3840,0L3840,490L3813.3,490C3786.7,490,3733,490,3680,490C3626.7,490,3573,490,3520,490C3466.7,490,3413,490,3360,490C3306.7,490,3253,490,3200,490C3146.7,490,3093,490,3040,490C2986.7,490,2933,490,2880,490C2826.7,490,2773,490,2720,490C2666.7,490,2613,490,2560,490C2506.7,490,2453,490,2400,490C2346.7,490,2293,490,2240,490C2186.7,490,2133,490,2080,490C2026.7,490,1973,490,1920,490C1866.7,490,1813,490,1760,490C1706.7,490,1653,490,1600,490C1546.7,490,1493,490,1440,490C1386.7,490,1333,490,1280,490C1226.7,490,1173,490,1120,490C1066.7,490,1013,490,960,490C906.7,490,853,490,800,490C746.7,490,693,490,640,490C586.7,490,533,490,480,490C426.7,490,373,490,320,490C266.7,490,213,490,160,490C106.7,490,53,490,27,490L0,490Z"/><defs><linearGradient id="sw-gradient-1" x1="0" x2="0" y1="1" y2="0"><stop stop-color="rgba(111.776, 59.921, 43.267, 0.61)" offset="0%"/><stop stop-color="rgba(255, 179, 11, 1)" offset="100%"/></linearGradient></defs><path style="transform:translate(0, 50px); opacity:0.9" fill="url(#sw-gradient-1)" d="M0,0L26.7,65.3C53.3,131,107,261,160,302.2C213.3,343,267,294,320,228.7C373.3,163,427,82,480,98C533.3,114,587,229,640,261.3C693.3,294,747,245,800,253.2C853.3,261,907,327,960,294C1013.3,261,1067,131,1120,138.8C1173.3,147,1227,294,1280,310.3C1333.3,327,1387,212,1440,163.3C1493.3,114,1547,131,1600,130.7C1653.3,131,1707,114,1760,106.2C1813.3,98,1867,98,1920,138.8C1973.3,180,2027,261,2080,302.2C2133.3,343,2187,343,2240,351.2C2293.3,359,2347,376,2400,375.7C2453.3,376,2507,359,2560,326.7C2613.3,294,2667,245,2720,220.5C2773.3,196,2827,196,2880,236.8C2933.3,278,2987,359,3040,367.5C3093.3,376,3147,310,3200,310.3C3253.3,310,3307,376,3360,375.7C3413.3,376,3467,310,3520,294C3573.3,278,3627,310,3680,269.5C3733.3,229,3787,114,3813,57.2L3840,0L3840,490L3813.3,490C3786.7,490,3733,490,3680,490C3626.7,490,3573,490,3520,490C3466.7,490,3413,490,3360,490C3306.7,490,3253,490,3200,490C3146.7,490,3093,490,3040,490C2986.7,490,2933,490,2880,490C2826.7,490,2773,490,2720,490C2666.7,490,2613,490,2560,490C2506.7,490,2453,490,2400,490C2346.7,490,2293,490,2240,490C2186.7,490,2133,490,2080,490C2026.7,490,1973,490,1920,490C1866.7,490,1813,490,1760,490C1706.7,490,1653,490,1600,490C1546.7,490,1493,490,1440,490C1386.7,490,1333,490,1280,490C1226.7,490,1173,490,1120,490C1066.7,490,1013,490,960,490C906.7,490,853,490,800,490C746.7,490,693,490,640,490C586.7,490,533,490,480,490C426.7,490,373,490,320,490C266.7,490,213,490,160,490C106.7,490,53,490,27,490L0,490Z"/><defs><linearGradient id="sw-gradient-2" x1="0" x2="0" y1="1" y2="0"><stop stop-color="rgba(200.677, 200.677, 200.677, 1)" offset="0%"/><stop stop-color="rgba(255, 179, 11, 1)" offset="100%"/></linearGradient></defs><path style="transform:translate(0, 100px); opacity:0.8" fill="url(#sw-gradient-2)" d="M0,441L26.7,367.5C53.3,294,107,147,160,138.8C213.3,131,267,261,320,302.2C373.3,343,427,294,480,277.7C533.3,261,587,278,640,245C693.3,212,747,131,800,155.2C853.3,180,907,310,960,359.3C1013.3,408,1067,376,1120,343C1173.3,310,1227,278,1280,269.5C1333.3,261,1387,278,1440,277.7C1493.3,278,1547,261,1600,269.5C1653.3,278,1707,310,1760,294C1813.3,278,1867,212,1920,228.7C1973.3,245,2027,343,2080,383.8C2133.3,425,2187,408,2240,334.8C2293.3,261,2347,131,2400,130.7C2453.3,131,2507,261,2560,334.8C2613.3,408,2667,425,2720,424.7C2773.3,425,2827,408,2880,392C2933.3,376,2987,359,3040,359.3C3093.3,359,3147,376,3200,392C3253.3,408,3307,425,3360,392C3413.3,359,3467,278,3520,236.8C3573.3,196,3627,196,3680,212.3C3733.3,229,3787,261,3813,277.7L3840,294L3840,490L3813.3,490C3786.7,490,3733,490,3680,490C3626.7,490,3573,490,3520,490C3466.7,490,3413,490,3360,490C3306.7,490,3253,490,3200,490C3146.7,490,3093,490,3040,490C2986.7,490,2933,490,2880,490C2826.7,490,2773,490,2720,490C2666.7,490,2613,490,2560,490C2506.7,490,2453,490,2400,490C2346.7,490,2293,490,2240,490C2186.7,490,2133,490,2080,490C2026.7,490,1973,490,1920,490C1866.7,490,1813,490,1760,490C1706.7,490,1653,490,1600,490C1546.7,490,1493,490,1440,490C1386.7,490,1333,490,1280,490C1226.7,490,1173,490,1120,490C1066.7,490,1013,490,960,490C906.7,490,853,490,800,490C746.7,490,693,490,640,490C586.7,490,533,490,480,490C426.7,490,373,490,320,490C266.7,490,213,490,160,490C106.7,490,53,490,27,490L0,490Z"/><defs><linearGradient id="sw-gradient-3" x1="0" x2="0" y1="1" y2="0"><stop stop-color="rgba(243, 62, 108.368, 1)" offset="0%"/><stop stop-color="rgba(255, 179, 11, 1)" offset="100%"/></linearGradient></defs><path style="transform:translate(0, 150px); opacity:0.7" fill="url(#sw-gradient-3)" d="M0,196L26.7,220.5C53.3,245,107,294,160,269.5C213.3,245,267,147,320,114.3C373.3,82,427,114,480,138.8C533.3,163,587,180,640,196C693.3,212,747,229,800,269.5C853.3,310,907,376,960,392C1013.3,408,1067,376,1120,359.3C1173.3,343,1227,343,1280,343C1333.3,343,1387,343,1440,326.7C1493.3,310,1547,278,1600,269.5C1653.3,261,1707,278,1760,285.8C1813.3,294,1867,294,1920,302.2C1973.3,310,2027,327,2080,294C2133.3,261,2187,180,2240,179.7C2293.3,180,2347,261,2400,302.2C2453.3,343,2507,343,2560,294C2613.3,245,2667,147,2720,138.8C2773.3,131,2827,212,2880,277.7C2933.3,343,2987,392,3040,400.2C3093.3,408,3147,376,3200,359.3C3253.3,343,3307,343,3360,334.8C3413.3,327,3467,310,3520,277.7C3573.3,245,3627,196,3680,147C3733.3,98,3787,49,3813,24.5L3840,0L3840,490L3813.3,490C3786.7,490,3733,490,3680,490C3626.7,490,3573,490,3520,490C3466.7,490,3413,490,3360,490C3306.7,490,3253,490,3200,490C3146.7,490,3093,490,3040,490C2986.7,490,2933,490,2880,490C2826.7,490,2773,490,2720,490C2666.7,490,2613,490,2560,490C2506.7,490,2453,490,2400,490C2346.7,490,2293,490,2240,490C2186.7,490,2133,490,2080,490C2026.7,490,1973,490,1920,490C1866.7,490,1813,490,1760,490C1706.7,490,1653,490,1600,490C1546.7,490,1493,490,1440,490C1386.7,490,1333,490,1280,490C1226.7,490,1173,490,1120,490C1066.7,490,1013,490,960,490C906.7,490,853,490,800,490C746.7,490,693,490,640,490C586.7,490,533,490,480,490C426.7,490,373,490,320,490C266.7,490,213,490,160,490C106.7,490,53,490,27,490L0,490Z"/></svg>